<svg width="624" height="202" viewBox="0 0 624 202" fill="none" xmlns="http://www.w3.org/2000/svg">
<path d="M138.316 0L105.957 30.0688H49.8283L22.6232 0H138.316ZM120.848 200.459H5.15465L37.5144 170.676H93.6428L120.848 200.459ZM35.7962 124.571L32.3597 164.949L0 194.731L6.5865 117.125L18.9004 105.957L35.7962 124.571ZM9.73656 83.3335L16.3231 5.72738L43.5281 35.5098L40.0917 75.8879L19.7595 94.7883L9.73656 83.3335ZM133.448 117.125L126.862 194.731L99.6565 164.949L103.093 124.571L123.425 105.957L133.448 117.125ZM107.389 75.8879L110.825 35.5098L143.185 5.72738L136.598 83.3335L124.284 94.7883L107.389 75.8879ZM104.811 85.3381L118.557 100.229L102.234 115.12H38.6599L25.2005 100.229L41.2372 85.3381H104.811Z" fill="#2B2929"/>
<path d="M298.588 0L266.228 30.0688H210.1L182.895 0H298.588ZM281.12 200.459H165.426L197.786 170.676H253.915L281.12 200.459ZM196.068 124.571L192.632 164.949L160.272 194.731L166.858 117.125L179.172 105.957L196.068 124.571ZM170.008 83.3335L176.595 5.72738L203.8 35.5098L200.363 75.8879L180.031 94.7883L170.008 83.3335ZM293.72 117.125L287.133 194.731L259.928 164.949L263.365 124.571L283.697 105.957L293.72 117.125ZM267.66 75.8879L271.097 35.5098L303.456 5.72738L296.87 83.3335L284.556 94.7883L267.66 75.8879ZM265.083 85.3381L278.829 100.229L262.506 115.12H198.932L185.472 100.229L201.509 85.3381H265.083Z" fill="#2B2929"/>
<path d="M458.86 0L426.5 30.0688H370.372L343.167 0H458.86ZM441.391 200.459H325.698L358.058 170.676H414.186L441.391 200.459ZM356.34 124.571L352.903 164.949L320.544 194.731L327.13 117.125L339.444 105.957L356.34 124.571ZM330.28 83.3335L336.867 5.72738L364.072 35.5098L360.635 75.8879L340.303 94.7883L330.28 83.3335ZM453.992 117.125L447.405 194.731L420.2 164.949L423.637 124.571L443.969 105.957L453.992 117.125ZM427.932 75.8879L431.368 35.5098L463.728 5.72738L457.142 83.3335L444.828 94.7883L427.932 75.8879ZM425.355 85.3381L439.1 100.229L422.777 115.12H359.203L345.744 100.229L361.781 85.3381H425.355Z" fill="#2B2929"/>
<path d="M619.132 0L586.772 30.0688H530.644L503.439 0H619.132ZM601.663 200.459H485.97L518.33 170.676H574.458L601.663 200.459ZM516.611 124.571L513.175 164.949L480.815 194.731L487.402 117.125L499.716 105.957L516.611 124.571ZM490.552 83.3335L497.138 5.72738L524.343 35.5098L520.907 75.8879L500.575 94.7883L490.552 83.3335ZM614.263 117.125L607.677 194.731L580.472 164.949L583.908 124.571L604.241 105.957L614.263 117.125ZM588.204 75.8879L591.64 35.5098L624 5.72738L617.414 83.3335L605.1 94.7883L588.204 75.8879ZM585.627 85.3381L599.372 100.229L583.049 115.12H519.475L506.016 100.229L522.052 85.3381H585.627Z" fill="#2B2929"/>
<path d="M138.316 1.11865L105.957 31.1874H49.8283L22.6232 1.11865H138.316ZM120.848 201.577H5.15465L37.5144 171.795H93.6428L120.848 201.577ZM35.7962 125.689L32.3597 166.067L0 195.85L6.5865 118.244L18.9004 107.075L35.7962 125.689ZM9.73656 84.4521L16.3231 6.84603L43.5281 36.6285L40.0917 77.0065L19.7595 95.9069L9.73656 84.4521ZM133.448 118.244L126.862 195.85L99.6565 166.067L103.093 125.689L123.425 107.075L133.448 118.244ZM107.389 77.0065L110.825 36.6285L143.185 6.84603L136.598 84.4521L124.284 95.9069L107.389 77.0065Z" fill="white"/>
<path d="M298.588 1.11865L266.228 31.1874H210.1L182.895 1.11865H298.588ZM281.12 201.577H165.426L197.786 171.795H253.915L281.12 201.577ZM293.72 118.244L287.133 195.85L259.928 166.067L263.365 125.689L283.697 107.075L293.72 118.244ZM267.66 77.0065L271.097 36.6285L303.456 6.84603L296.87 84.4521L284.556 95.9069L267.66 77.0065ZM265.083 86.4567L278.829 101.348L262.506 116.239H198.932L185.472 101.348L201.509 86.4567H265.083Z" fill="white"/>
<path d="M458.86 1.11865L426.5 31.1874H370.372L343.167 1.11865H458.86ZM441.391 201.577H325.698L358.058 171.795H414.186L441.391 201.577ZM356.34 125.689L352.903 166.067L320.544 195.85L327.13 118.244L339.444 107.075L356.34 125.689ZM427.932 77.0065L431.368 36.6285L463.728 6.84603L457.142 84.4521L444.828 95.9069L427.932 77.0065ZM425.355 86.4567L439.1 101.348L422.777 116.239H359.203L345.744 101.348L361.781 86.4567H425.355Z" fill="white"/>
<path d="M619.132 1.11865L586.772 31.1874H530.644L503.439 1.11865H619.132ZM601.663 201.577H485.97L518.33 171.795H574.458L601.663 201.577ZM516.611 125.689L513.175 166.067L480.815 195.85L487.402 118.244L499.716 107.075L516.611 125.689ZM490.552 84.4521L497.138 6.84603L524.343 36.6285L520.907 77.0065L500.575 95.9069L490.552 84.4521ZM614.263 118.244L607.677 195.85L580.472 166.067L583.908 125.689L604.241 107.075L614.263 118.244ZM588.204 77.0065L591.64 36.6285L624 6.84603L617.414 84.4521L605.1 95.9069L588.204 77.0065Z" fill="white"/>
</svg>
