<!-- <svg width="624" height="202" viewBox="0 0 624 202" fill="none" xmlns="http://www.w3.org/2000/svg">
<path d="M138.316 0L105.957 30.0688H49.8283L22.6232 0H138.316ZM120.848 200.459H5.15465L37.5144 170.676H93.6428L120.848 200.459ZM35.7962 124.571L32.3597 164.949L0 194.731L6.5865 117.125L18.9004 105.957L35.7962 124.571ZM9.73656 83.3335L16.3231 5.72738L43.5281 35.5098L40.0917 75.8879L19.7595 94.7883L9.73656 83.3335ZM133.448 117.125L126.862 194.731L99.6565 164.949L103.093 124.571L123.425 105.957L133.448 117.125ZM107.389 75.8879L110.825 35.5098L143.185 5.72738L136.598 83.3335L124.284 94.7883L107.389 75.8879ZM104.811 85.3381L118.557 100.229L102.234 115.12H38.6599L25.2005 100.229L41.2372 85.3381H104.811Z" fill="#2B2929"/>
<path d="M298.588 0L266.228 30.0688H210.1L182.895 0H298.588ZM281.12 200.459H165.426L197.786 170.676H253.915L281.12 200.459ZM196.068 124.571L192.632 164.949L160.272 194.731L166.858 117.125L179.172 105.957L196.068 124.571ZM170.008 83.3335L176.595 5.72738L203.8 35.5098L200.363 75.8879L180.031 94.7883L170.008 83.3335ZM293.72 117.125L287.133 194.731L259.928 164.949L263.365 124.571L283.697 105.957L293.72 117.125ZM267.66 75.8879L271.097 35.5098L303.456 5.72738L296.87 83.3335L284.556 94.7883L267.66 75.8879ZM265.083 85.3381L278.829 100.229L262.506 115.12H198.932L185.472 100.229L201.509 85.3381H265.083Z" fill="#2B2929"/>
<path d="M458.86 0L426.5 30.0688H370.372L343.167 0H458.86ZM441.391 200.459H325.698L358.058 170.676H414.186L441.391 200.459ZM356.34 124.571L352.903 164.949L320.544 194.731L327.13 117.125L339.444 105.957L356.34 124.571ZM330.28 83.3335L336.867 5.72738L364.072 35.5098L360.635 75.8879L340.303 94.7883L330.28 83.3335ZM453.992 117.125L447.405 194.731L420.2 164.949L423.637 124.571L443.969 105.957L453.992 117.125ZM427.932 75.8879L431.368 35.5098L463.728 5.72738L457.142 83.3335L444.828 94.7883L427.932 75.8879ZM425.355 85.3381L439.1 100.229L422.777 115.12H359.203L345.744 100.229L361.781 85.3381H425.355Z" fill="#2B2929"/>
<path d="M619.132 0L586.772 30.0688H530.644L503.439 0H619.132ZM601.663 200.459H485.97L518.33 170.676H574.458L601.663 200.459ZM516.611 124.571L513.175 164.949L480.815 194.731L487.402 117.125L499.716 105.957L516.611 124.571ZM490.552 83.3335L497.138 5.72738L524.343 35.5098L520.907 75.8879L500.575 94.7883L490.552 83.3335ZM614.263 117.125L607.677 194.731L580.472 164.949L583.908 124.571L604.241 105.957L614.263 117.125ZM588.204 75.8879L591.64 35.5098L624 5.72738L617.414 83.3335L605.1 94.7883L588.204 75.8879ZM585.627 85.3381L599.372 100.229L583.049 115.12H519.475L506.016 100.229L522.052 85.3381H585.627Z" fill="#2B2929"/>
<path d="M138.316 1.11865L105.957 31.1874H49.8283L22.6232 1.11865H138.316ZM120.848 201.577H5.15465L37.5144 171.795H93.6428L120.848 201.577ZM35.7962 125.689L32.3597 166.067L0 195.85L6.5865 118.244L18.9004 107.075L35.7962 125.689ZM9.73656 84.4521L16.3231 6.84603L43.5281 36.6285L40.0917 77.0065L19.7595 95.9069L9.73656 84.4521ZM133.448 118.244L126.862 195.85L99.6565 166.067L103.093 125.689L123.425 107.075L133.448 118.244ZM107.389 77.0065L110.825 36.6285L143.185 6.84603L136.598 84.4521L124.284 95.9069L107.389 77.0065Z" fill="white"/>
<path d="M298.588 1.11865L266.228 31.1874H210.1L182.895 1.11865H298.588ZM281.12 201.577H165.426L197.786 171.795H253.915L281.12 201.577ZM293.72 118.244L287.133 195.85L259.928 166.067L263.365 125.689L283.697 107.075L293.72 118.244ZM267.66 77.0065L271.097 36.6285L303.456 6.84603L296.87 84.4521L284.556 95.9069L267.66 77.0065ZM265.083 86.4567L278.829 101.348L262.506 116.239H198.932L185.472 101.348L201.509 86.4567H265.083Z" fill="white"/>
<path d="M458.86 1.11865L426.5 31.1874H370.372L343.167 1.11865H458.86ZM441.391 201.577H325.698L358.058 171.795H414.186L441.391 201.577ZM356.34 125.689L352.903 166.067L320.544 195.85L327.13 118.244L339.444 107.075L356.34 125.689ZM427.932 77.0065L431.368 36.6285L463.728 6.84603L457.142 84.4521L444.828 95.9069L427.932 77.0065ZM425.355 86.4567L439.1 101.348L422.777 116.239H359.203L345.744 101.348L361.781 86.4567H425.355Z" fill="white"/>
<path d="M619.132 1.11865L586.772 31.1874H530.644L503.439 1.11865H619.132ZM601.663 201.577H485.97L518.33 171.795H574.458L601.663 201.577ZM516.611 125.689L513.175 166.067L480.815 195.85L487.402 118.244L499.716 107.075L516.611 125.689ZM490.552 84.4521L497.138 6.84603L524.343 36.6285L520.907 77.0065L500.575 95.9069L490.552 84.4521ZM614.263 118.244L607.677 195.85L580.472 166.067L583.908 125.689L604.241 107.075L614.263 118.244ZM588.204 77.0065L591.64 36.6285L624 6.84603L617.414 84.4521L605.1 95.9069L588.204 77.0065Z" fill="white"/>
</svg> -->


<!-- <svg width="179" height="47" viewBox="0 0 179 47" fill="none" xmlns="http://www.w3.org/2000/svg">
<path fill-rule="evenodd" clip-rule="evenodd" d="M15.2416 7.85174V17.5509L23.0933 10.1611V0L15.7034 7.38987L15.2416 7.85174ZM13.8561 9.23728V46.6485L7.38991 40.1824V15.7034L13.8561 9.23728ZM32.3308 9.23728V46.6485L38.7969 40.1824V15.7034L32.3308 9.23728ZM30.9451 17.5509V7.85174L30.4832 7.38987L23.0933 0V10.1611L30.9451 17.5509ZM23.093 31.869V30.0215V23.5554L17.2887 17.4608L15.241 19.286V23.6244L23.093 31.869ZM30.9453 23.6244L23.0933 31.8689V30.0215V23.5553L28.8831 17.4761L30.9453 19.2436V23.6244ZM5.08054 26.7883L6.00427 25.8645V16.6272L0 22.1696V31.8688L5.08054 26.7883ZM41.1061 26.7883L40.1823 25.8645V16.6272L46.1866 22.1696V31.8688L41.1061 26.7883Z" fill="white"/>
<path d="M57.8859 36.658H56.6808C56.3957 36.658 56.305 36.5025 56.4087 36.1915L64.1445 12.1286C64.2223 11.8176 64.4037 11.6621 64.6888 11.6621H66.5158C66.775 11.6621 66.9564 11.8176 67.0601 12.1286L74.796 36.1915C74.8737 36.5025 74.783 36.658 74.5238 36.658H73.2799C73.0207 36.658 72.8523 36.5025 72.7745 36.1915L70.6753 29.9717H60.4904L58.3912 36.1915C58.2876 36.5025 58.1191 36.658 57.8859 36.658ZM65.5051 13.8002L61.0346 28.2224H70.17L65.6606 13.8002H65.5051Z" fill="white"/>
<path d="M97.2341 11.6621H99.3332C99.5924 11.6621 99.722 11.8176 99.722 12.1286V36.1915C99.722 36.5025 99.5924 36.658 99.3332 36.658H98.2059C97.9208 36.658 97.7783 36.5025 97.7783 36.1915V14.6554H97.6228L90.7421 30.788C90.5866 31.0731 90.3923 31.2156 90.159 31.2156H88.8762C88.617 31.2156 88.4356 31.0731 88.3319 30.788L81.3347 14.6165H81.1792V36.1915C81.1792 36.5025 81.0496 36.658 80.7904 36.658H79.6631C79.4039 36.658 79.2743 36.5025 79.2743 36.1915V12.1286C79.2743 11.8176 79.4039 11.6621 79.6631 11.6621H81.7623C81.9437 11.6621 82.0603 11.7399 82.1121 11.8954L89.4204 28.961H89.5759L96.8842 11.8954C96.936 11.7399 97.0526 11.6621 97.2341 11.6621Z" fill="white"/>
<path d="M111.784 36.658H110.657C110.372 36.658 110.229 36.5025 110.229 36.1915V13.7613C110.229 13.5281 110.1 13.4114 109.84 13.4114H104.204C103.893 13.4114 103.737 13.2689 103.737 12.9838V12.0897C103.737 11.8046 103.893 11.6621 104.204 11.6621H118.198C118.509 11.6621 118.665 11.8046 118.665 12.0897V12.9838C118.665 13.2689 118.509 13.4114 118.198 13.4114H112.562C112.302 13.4114 112.173 13.5281 112.173 13.7613V36.1915C112.173 36.5025 112.043 36.658 111.784 36.658Z" fill="white"/>
<path d="M135.066 36.658H123.054C122.795 36.658 122.666 36.5025 122.666 36.1915V12.1286C122.666 11.8176 122.795 11.6621 123.054 11.6621H135.066C135.377 11.6621 135.533 11.8046 135.533 12.0897V12.9838C135.533 13.2689 135.377 13.4114 135.066 13.4114H124.998C124.739 13.4114 124.609 13.5281 124.609 13.7613V22.7023C124.609 22.9355 124.739 23.0521 124.998 23.0521H133.978C134.263 23.0521 134.406 23.1947 134.406 23.4797V24.3738C134.406 24.6589 134.263 24.8015 133.978 24.8015H124.998C124.739 24.8015 124.609 24.9181 124.609 25.1513V34.5588C124.609 34.792 124.739 34.9086 124.998 34.9086H135.066C135.377 34.9086 135.533 35.0512 135.533 35.3363V36.2304C135.533 36.5154 135.377 36.658 135.066 36.658Z" fill="white"/>
<path d="M151.333 36.658H146.435C144.75 36.658 143.416 36.1656 142.431 35.1808C141.472 34.196 140.993 32.8483 140.993 31.1379V17.1822C140.993 15.4717 141.472 14.1241 142.431 13.1393C143.416 12.1545 144.75 11.6621 146.435 11.6621H151.333C153.018 11.6621 154.339 12.1545 155.298 13.1393C156.283 14.1241 156.775 15.4717 156.775 17.1822V19.087C156.775 19.398 156.633 19.5535 156.348 19.5535H155.259C154.974 19.5535 154.832 19.398 154.832 19.087V17.2599C154.832 16.016 154.508 15.07 153.86 14.4221C153.238 13.7483 152.331 13.4114 151.139 13.4114H146.59C145.398 13.4114 144.491 13.7483 143.869 14.4221C143.247 15.096 142.936 16.0419 142.936 17.2599V31.0601C142.936 32.2782 143.247 33.2241 143.869 33.8979C144.491 34.5717 145.398 34.9086 146.59 34.9086H151.139C152.331 34.9086 153.238 34.5847 153.86 33.9368C154.508 33.263 154.832 32.3041 154.832 31.0601V29.2331C154.832 28.9221 154.974 28.7666 155.259 28.7666H156.348C156.633 28.7666 156.775 28.9221 156.775 29.2331V31.1379C156.775 32.8483 156.283 34.196 155.298 35.1808C154.339 36.1656 153.018 36.658 151.333 36.658Z" fill="white"/>
<path d="M163.967 36.658H162.839C162.58 36.658 162.451 36.5025 162.451 36.1915V12.1286C162.451 11.8176 162.58 11.6621 162.839 11.6621H163.967C164.252 11.6621 164.394 11.8176 164.394 12.1286V22.7411C164.394 22.9744 164.524 23.091 164.783 23.091H175.668C175.927 23.091 176.056 22.9744 176.056 22.7411V12.1286C176.056 11.8176 176.186 11.6621 176.445 11.6621H177.573C177.858 11.6621 178 11.8176 178 12.1286V36.1915C178 36.5025 177.858 36.658 177.573 36.658H176.445C176.186 36.658 176.056 36.5025 176.056 36.1915V25.1902C176.056 24.957 175.927 24.8403 175.668 24.8403H164.783C164.524 24.8403 164.394 24.957 164.394 25.1902V36.1915C164.394 36.5025 164.252 36.658 163.967 36.658Z" fill="white"/>
<path d="M57.8859 36.658H56.6808C56.3957 36.658 56.305 36.5025 56.4087 36.1915L64.1445 12.1286C64.2223 11.8176 64.4037 11.6621 64.6888 11.6621H66.5158C66.775 11.6621 66.9564 11.8176 67.0601 12.1286L74.796 36.1915C74.8737 36.5025 74.783 36.658 74.5238 36.658H73.2799C73.0207 36.658 72.8523 36.5025 72.7745 36.1915L70.6753 29.9717H60.4904L58.3912 36.1915C58.2876 36.5025 58.1191 36.658 57.8859 36.658ZM65.5051 13.8002L61.0346 28.2224H70.17L65.6606 13.8002H65.5051Z" stroke="white" stroke-width="2"/>
<path d="M97.2341 11.6621H99.3332C99.5924 11.6621 99.722 11.8176 99.722 12.1286V36.1915C99.722 36.5025 99.5924 36.658 99.3332 36.658H98.2059C97.9208 36.658 97.7783 36.5025 97.7783 36.1915V14.6554H97.6228L90.7421 30.788C90.5866 31.0731 90.3923 31.2156 90.159 31.2156H88.8762C88.617 31.2156 88.4356 31.0731 88.3319 30.788L81.3347 14.6165H81.1792V36.1915C81.1792 36.5025 81.0496 36.658 80.7904 36.658H79.6631C79.4039 36.658 79.2743 36.5025 79.2743 36.1915V12.1286C79.2743 11.8176 79.4039 11.6621 79.6631 11.6621H81.7623C81.9437 11.6621 82.0603 11.7399 82.1121 11.8954L89.4204 28.961H89.5759L96.8842 11.8954C96.936 11.7399 97.0526 11.6621 97.2341 11.6621Z" stroke="white" stroke-width="2"/>
<path d="M111.784 36.658H110.657C110.372 36.658 110.229 36.5025 110.229 36.1915V13.7613C110.229 13.5281 110.1 13.4114 109.84 13.4114H104.204C103.893 13.4114 103.737 13.2689 103.737 12.9838V12.0897C103.737 11.8046 103.893 11.6621 104.204 11.6621H118.198C118.509 11.6621 118.665 11.8046 118.665 12.0897V12.9838C118.665 13.2689 118.509 13.4114 118.198 13.4114H112.562C112.302 13.4114 112.173 13.5281 112.173 13.7613V36.1915C112.173 36.5025 112.043 36.658 111.784 36.658Z" stroke="white" stroke-width="2"/>
<path d="M135.066 36.658H123.054C122.795 36.658 122.666 36.5025 122.666 36.1915V12.1286C122.666 11.8176 122.795 11.6621 123.054 11.6621H135.066C135.377 11.6621 135.533 11.8046 135.533 12.0897V12.9838C135.533 13.2689 135.377 13.4114 135.066 13.4114H124.998C124.739 13.4114 124.609 13.5281 124.609 13.7613V22.7023C124.609 22.9355 124.739 23.0521 124.998 23.0521H133.978C134.263 23.0521 134.406 23.1947 134.406 23.4797V24.3738C134.406 24.6589 134.263 24.8015 133.978 24.8015H124.998C124.739 24.8015 124.609 24.9181 124.609 25.1513V34.5588C124.609 34.792 124.739 34.9086 124.998 34.9086H135.066C135.377 34.9086 135.533 35.0512 135.533 35.3363V36.2304C135.533 36.5154 135.377 36.658 135.066 36.658Z" stroke="white" stroke-width="2"/>
<path d="M151.333 36.658H146.435C144.75 36.658 143.416 36.1656 142.431 35.1808C141.472 34.196 140.993 32.8483 140.993 31.1379V17.1822C140.993 15.4717 141.472 14.1241 142.431 13.1393C143.416 12.1545 144.75 11.6621 146.435 11.6621H151.333C153.018 11.6621 154.339 12.1545 155.298 13.1393C156.283 14.1241 156.775 15.4717 156.775 17.1822V19.087C156.775 19.398 156.633 19.5535 156.348 19.5535H155.259C154.974 19.5535 154.832 19.398 154.832 19.087V17.2599C154.832 16.016 154.508 15.07 153.86 14.4221C153.238 13.7483 152.331 13.4114 151.139 13.4114H146.59C145.398 13.4114 144.491 13.7483 143.869 14.4221C143.247 15.096 142.936 16.0419 142.936 17.2599V31.0601C142.936 32.2782 143.247 33.2241 143.869 33.8979C144.491 34.5717 145.398 34.9086 146.59 34.9086H151.139C152.331 34.9086 153.238 34.5847 153.86 33.9368C154.508 33.263 154.832 32.3041 154.832 31.0601V29.2331C154.832 28.9221 154.974 28.7666 155.259 28.7666H156.348C156.633 28.7666 156.775 28.9221 156.775 29.2331V31.1379C156.775 32.8483 156.283 34.196 155.298 35.1808C154.339 36.1656 153.018 36.658 151.333 36.658Z" stroke="white" stroke-width="2"/>
<path d="M163.967 36.658H162.839C162.58 36.658 162.451 36.5025 162.451 36.1915V12.1286C162.451 11.8176 162.58 11.6621 162.839 11.6621H163.967C164.252 11.6621 164.394 11.8176 164.394 12.1286V22.7411C164.394 22.9744 164.524 23.091 164.783 23.091H175.668C175.927 23.091 176.056 22.9744 176.056 22.7411V12.1286C176.056 11.8176 176.186 11.6621 176.445 11.6621H177.573C177.858 11.6621 178 11.8176 178 12.1286V36.1915C178 36.5025 177.858 36.658 177.573 36.658H176.445C176.186 36.658 176.056 36.5025 176.056 36.1915V25.1902C176.056 24.957 175.927 24.8403 175.668 24.8403H164.783C164.524 24.8403 164.394 24.957 164.394 25.1902V36.1915C164.394 36.5025 164.252 36.658 163.967 36.658Z" stroke="white" stroke-width="2"/>
</svg> -->


<svg width="93" height="11" viewBox="0 0 93 11" fill="none" xmlns="http://www.w3.org/2000/svg">
<path d="M5.264 11H3.52C2.67733 11 2.02667 10.776 1.568 10.328C1.10933 9.88 0.88 9.23467 0.88 8.392V3.32C0.88 2.47733 1.10933 1.832 1.568 1.384C2.02667 0.936 2.67733 0.712 3.52 0.712H5.264C6.096 0.712 6.74133 0.941333 7.2 1.4C7.66933 1.848 7.904 2.488 7.904 3.32V4.072C7.904 4.30667 7.78667 4.424 7.552 4.424H6.208C5.984 4.424 5.872 4.30667 5.872 4.072V3.416C5.872 3.07467 5.79733 2.83467 5.648 2.696C5.50933 2.54667 5.26933 2.472 4.928 2.472H3.84C3.50933 2.472 3.26933 2.54667 3.12 2.696C2.98133 2.83467 2.912 3.07467 2.912 3.416V8.296C2.912 8.63733 2.98133 8.88267 3.12 9.032C3.26933 9.17067 3.50933 9.24 3.84 9.24H4.928C5.26933 9.24 5.50933 9.17067 5.648 9.032C5.79733 8.88267 5.872 8.63733 5.872 8.296V7.64C5.872 7.40533 5.984 7.288 6.208 7.288H7.552C7.78667 7.288 7.904 7.40533 7.904 7.64V8.392C7.904 9.224 7.66933 9.86933 7.2 10.328C6.74133 10.776 6.096 11 5.264 11ZM12.4494 9.24H13.5854C13.9267 9.24 14.1667 9.17067 14.3054 9.032C14.4547 8.88267 14.5294 8.63733 14.5294 8.296V3.416C14.5294 3.07467 14.4547 2.83467 14.3054 2.696C14.1667 2.54667 13.9267 2.472 13.5854 2.472H12.4494C12.108 2.472 11.868 2.54667 11.7294 2.696C11.5907 2.83467 11.5214 3.07467 11.5214 3.416V8.296C11.5214 8.63733 11.5907 8.88267 11.7294 9.032C11.868 9.17067 12.108 9.24 12.4494 9.24ZM13.9214 11H12.1294C11.2867 11 10.636 10.776 10.1774 10.328C9.71871 9.88 9.48938 9.23467 9.48938 8.392V3.32C9.48938 2.47733 9.71871 1.832 10.1774 1.384C10.636 0.936 11.2867 0.712 12.1294 0.712H13.9214C14.764 0.712 15.4147 0.936 15.8734 1.384C16.332 1.832 16.5614 2.47733 16.5614 3.32V8.392C16.5614 9.23467 16.332 9.88 15.8734 10.328C15.4147 10.776 14.764 11 13.9214 11ZM20.1415 11H18.8135C18.5895 11 18.4775 10.888 18.4775 10.664V1.048C18.4775 0.824 18.5895 0.712 18.8135 0.712H20.0135C20.2375 0.712 20.3868 0.786667 20.4615 0.936L23.6935 7H23.7575V1.048C23.7575 0.824 23.8695 0.712 24.0935 0.712H25.4215C25.6455 0.712 25.7575 0.824 25.7575 1.048V10.664C25.7575 10.888 25.6455 11 25.4215 11H24.2535C24.0188 11 23.8482 10.8933 23.7415 10.68L20.5415 4.728H20.4775V10.664C20.4775 10.888 20.3655 11 20.1415 11ZM32.0289 11H29.9329C29.7089 11 29.5755 10.888 29.5329 10.664L27.0529 1.08C26.9782 0.834667 27.0849 0.712 27.3729 0.712H28.8769C29.0902 0.712 29.2182 0.824 29.2609 1.048L30.9409 8.92H31.0049L32.6849 1.048C32.7275 0.824 32.8555 0.712 33.0689 0.712H34.5729C34.8395 0.712 34.9462 0.834667 34.8929 1.08L32.4129 10.664C32.3595 10.888 32.2315 11 32.0289 11ZM41.7486 11H36.5166C36.2926 11 36.1806 10.888 36.1806 10.664V1.048C36.1806 0.824 36.2926 0.712 36.5166 0.712H41.7486C41.962 0.712 42.0686 0.824 42.0686 1.048V2.136C42.0686 2.36 41.962 2.472 41.7486 2.472H38.4046C38.2766 2.472 38.2126 2.53067 38.2126 2.648V4.728C38.2126 4.84533 38.2766 4.904 38.4046 4.904H41.1406C41.3646 4.904 41.4766 5.016 41.4766 5.24V6.328C41.4766 6.552 41.3646 6.664 41.1406 6.664H38.4046C38.2766 6.664 38.2126 6.72267 38.2126 6.84V9.064C38.2126 9.18133 38.2766 9.24 38.4046 9.24H41.7486C41.962 9.24 42.0686 9.352 42.0686 9.576V10.664C42.0686 10.888 41.962 11 41.7486 11ZM45.5329 11H44.1729C43.9489 11 43.8369 10.888 43.8369 10.664V1.048C43.8369 0.824 43.9489 0.712 44.1729 0.712H47.9809C48.8129 0.712 49.4635 0.941333 49.9329 1.4C50.4022 1.85867 50.6369 2.504 50.6369 3.336V4.584C50.6369 5.78933 50.1622 6.58933 49.2129 6.984V7.048L50.9249 10.616C51.0209 10.872 50.9302 11 50.6529 11H49.3569C49.1649 11 49.0262 10.9787 48.9409 10.936C48.8555 10.8933 48.7862 10.8027 48.7329 10.664L47.1329 7.208H46.0609C45.9329 7.208 45.8689 7.26667 45.8689 7.384V10.664C45.8689 10.888 45.7569 11 45.5329 11ZM46.0449 5.576H47.6129C47.9542 5.576 48.2049 5.50667 48.3649 5.368C48.5249 5.21867 48.6049 4.984 48.6049 4.664V3.416C48.6049 3.08533 48.5249 2.84533 48.3649 2.696C48.2049 2.54667 47.9542 2.472 47.6129 2.472H46.0449C45.9275 2.472 45.8689 2.53067 45.8689 2.648V5.4C45.8689 5.51733 45.9275 5.576 46.0449 5.576ZM56.7629 11H55.0669C54.2242 11 53.5735 10.776 53.1149 10.328C52.6562 9.88 52.4269 9.23467 52.4269 8.392V3.32C52.4269 2.47733 52.6562 1.832 53.1149 1.384C53.5735 0.936 54.2242 0.712 55.0669 0.712H56.7629C57.5949 0.712 58.2402 0.941333 58.6989 1.4C59.1575 1.848 59.3869 2.488 59.3869 3.32V3.8C59.3869 4.03467 59.2749 4.152 59.0509 4.152H57.6909C57.4669 4.152 57.3549 4.03467 57.3549 3.8V3.416C57.3549 3.07467 57.2855 2.83467 57.1469 2.696C57.0082 2.54667 56.7682 2.472 56.4269 2.472H55.3869C55.0562 2.472 54.8162 2.54667 54.6669 2.696C54.5282 2.83467 54.4589 3.07467 54.4589 3.416V8.296C54.4589 8.63733 54.5282 8.88267 54.6669 9.032C54.8162 9.17067 55.0562 9.24 55.3869 9.24H56.4269C56.7682 9.24 57.0082 9.17067 57.1469 9.032C57.2855 8.88267 57.3549 8.63733 57.3549 8.296V7.288C57.3549 7.17067 57.2962 7.112 57.1789 7.112H56.2189C55.9949 7.112 55.8829 7 55.8829 6.776V5.688C55.8829 5.464 55.9949 5.352 56.2189 5.352H59.0189C59.2642 5.352 59.3869 5.47467 59.3869 5.72V8.392C59.3869 9.224 59.1575 9.86933 58.6989 10.328C58.2402 10.776 57.5949 11 56.7629 11ZM66.8736 11H61.6416C61.4176 11 61.3056 10.888 61.3056 10.664V1.048C61.3056 0.824 61.4176 0.712 61.6416 0.712H66.8736C67.087 0.712 67.1936 0.824 67.1936 1.048V2.136C67.1936 2.36 67.087 2.472 66.8736 2.472H63.5296C63.4016 2.472 63.3376 2.53067 63.3376 2.648V4.728C63.3376 4.84533 63.4016 4.904 63.5296 4.904H66.2656C66.4896 4.904 66.6016 5.016 66.6016 5.24V6.328C66.6016 6.552 66.4896 6.664 66.2656 6.664H63.5296C63.4016 6.664 63.3376 6.72267 63.3376 6.84V9.064C63.3376 9.18133 63.4016 9.24 63.5296 9.24H66.8736C67.087 9.24 67.1936 9.352 67.1936 9.576V10.664C67.1936 10.888 67.087 11 66.8736 11ZM70.6259 11H69.2979C69.0739 11 68.9619 10.888 68.9619 10.664V1.048C68.9619 0.824 69.0739 0.712 69.2979 0.712H70.4979C70.7219 0.712 70.8712 0.786667 70.9459 0.936L74.1779 7H74.2419V1.048C74.2419 0.824 74.3539 0.712 74.5779 0.712H75.9059C76.1299 0.712 76.2419 0.824 76.2419 1.048V10.664C76.2419 10.888 76.1299 11 75.9059 11H74.7379C74.5032 11 74.3325 10.8933 74.2259 10.68L71.0259 4.728H70.9619V10.664C70.9619 10.888 70.8499 11 70.6259 11ZM82.5453 11H80.8013C79.9586 11 79.3079 10.776 78.8493 10.328C78.3906 9.88 78.1613 9.23467 78.1613 8.392V3.32C78.1613 2.47733 78.3906 1.832 78.8493 1.384C79.3079 0.936 79.9586 0.712 80.8013 0.712H82.5453C83.3773 0.712 84.0226 0.941333 84.4813 1.4C84.9506 1.848 85.1853 2.488 85.1853 3.32V4.072C85.1853 4.30667 85.0679 4.424 84.8333 4.424H83.4893C83.2653 4.424 83.1533 4.30667 83.1533 4.072V3.416C83.1533 3.07467 83.0786 2.83467 82.9293 2.696C82.7906 2.54667 82.5506 2.472 82.2093 2.472H81.1213C80.7906 2.472 80.5506 2.54667 80.4013 2.696C80.2626 2.83467 80.1933 3.07467 80.1933 3.416V8.296C80.1933 8.63733 80.2626 8.88267 80.4013 9.032C80.5506 9.17067 80.7906 9.24 81.1213 9.24H82.2093C82.5506 9.24 82.7906 9.17067 82.9293 9.032C83.0786 8.88267 83.1533 8.63733 83.1533 8.296V7.64C83.1533 7.40533 83.2653 7.288 83.4893 7.288H84.8333C85.0679 7.288 85.1853 7.40533 85.1853 7.64V8.392C85.1853 9.224 84.9506 9.86933 84.4813 10.328C84.0226 10.776 83.3773 11 82.5453 11ZM92.4986 11H87.2666C87.0426 11 86.9306 10.888 86.9306 10.664V1.048C86.9306 0.824 87.0426 0.712 87.2666 0.712H92.4986C92.712 0.712 92.8186 0.824 92.8186 1.048V2.136C92.8186 2.36 92.712 2.472 92.4986 2.472H89.1546C89.0266 2.472 88.9626 2.53067 88.9626 2.648V4.728C88.9626 4.84533 89.0266 4.904 89.1546 4.904H91.8906C92.1146 4.904 92.2266 5.016 92.2266 5.24V6.328C92.2266 6.552 92.1146 6.664 91.8906 6.664H89.1546C89.0266 6.664 88.9626 6.72267 88.9626 6.84V9.064C88.9626 9.18133 89.0266 9.24 89.1546 9.24H92.4986C92.712 9.24 92.8186 9.352 92.8186 9.576V10.664C92.8186 10.888 92.712 11 92.4986 11Z" fill="white"/>
</svg>
