<svg width="624" height="203" viewBox="0 0 624 203" fill="none" xmlns="http://www.w3.org/2000/svg">
<path d="M138.316 0.538086L105.957 30.6069H49.8283L22.6232 0.538086H138.316ZM120.848 200.997H5.15465L37.5144 171.214H93.6428L120.848 200.997ZM35.7962 125.109L32.3597 165.487L0 195.269L6.5865 117.663L18.9004 106.495L35.7962 125.109ZM9.73656 83.8716L16.3231 6.26547L43.5281 36.0479L40.0917 76.426L19.7595 95.3263L9.73656 83.8716ZM133.448 117.663L126.862 195.269L99.6565 165.487L103.093 125.109L123.425 106.495L133.448 117.663ZM107.389 76.426L110.825 36.0479L143.185 6.26547L136.598 83.8716L124.284 95.3263L107.389 76.426ZM104.811 85.8762L118.557 100.767L102.234 115.659H38.6599L25.2005 100.767L41.2372 85.8762H104.811Z" fill="#2B2929"/>
<path d="M298.588 0.538086L266.228 30.6069H210.1L182.895 0.538086H298.588ZM281.12 200.997H165.426L197.786 171.214H253.915L281.12 200.997ZM196.068 125.109L192.632 165.487L160.272 195.269L166.858 117.663L179.172 106.495L196.068 125.109ZM170.008 83.8716L176.595 6.26547L203.8 36.0479L200.363 76.426L180.031 95.3263L170.008 83.8716ZM293.72 117.663L287.133 195.269L259.928 165.487L263.365 125.109L283.697 106.495L293.72 117.663ZM267.66 76.426L271.097 36.0479L303.456 6.26547L296.87 83.8716L284.556 95.3263L267.66 76.426ZM265.083 85.8762L278.829 100.767L262.506 115.659H198.932L185.472 100.767L201.509 85.8762H265.083Z" fill="#2B2929"/>
<path d="M458.86 0.538086L426.5 30.6069H370.372L343.167 0.538086H458.86ZM441.391 200.997H325.698L358.058 171.214H414.186L441.391 200.997ZM356.34 125.109L352.903 165.487L320.544 195.269L327.13 117.663L339.444 106.495L356.34 125.109ZM330.28 83.8716L336.867 6.26547L364.072 36.0479L360.635 76.426L340.303 95.3263L330.28 83.8716ZM453.992 117.663L447.405 195.269L420.2 165.487L423.637 125.109L443.969 106.495L453.992 117.663ZM427.932 76.426L431.368 36.0479L463.728 6.26547L457.142 83.8716L444.828 95.3263L427.932 76.426ZM425.355 85.8762L439.1 100.767L422.777 115.659H359.203L345.744 100.767L361.781 85.8762H425.355Z" fill="#2B2929"/>
<path d="M619.132 0.538086L586.772 30.6069H530.644L503.439 0.538086H619.132ZM601.663 200.997H485.97L518.33 171.214H574.458L601.663 200.997ZM516.611 125.109L513.175 165.487L480.815 195.269L487.402 117.663L499.716 106.495L516.611 125.109ZM490.552 83.8716L497.138 6.26547L524.343 36.0479L520.907 76.426L500.575 95.3263L490.552 83.8716ZM614.263 117.663L607.677 195.269L580.472 165.487L583.908 125.109L604.241 106.495L614.263 117.663ZM588.204 76.426L591.64 36.0479L624 6.26547L617.414 83.8716L605.1 95.3263L588.204 76.426ZM585.627 85.8762L599.372 100.767L583.049 115.659H519.475L506.016 100.767L522.052 85.8762H585.627Z" fill="#2B2929"/>
<path d="M138.316 1.65674L105.957 31.7255H49.8283L22.6232 1.65674H138.316ZM120.848 202.115H5.15465L37.5144 172.333H93.6428L120.848 202.115ZM35.7962 126.227L32.3597 166.605L0 196.388L6.5865 118.782L18.9004 107.613L35.7962 126.227ZM9.73656 84.9902L16.3231 7.38412L43.5281 37.1665L40.0917 77.5446L19.7595 96.445L9.73656 84.9902ZM133.448 118.782L126.862 196.388L99.6565 166.605L103.093 126.227L123.425 107.613L133.448 118.782ZM107.389 77.5446L110.825 37.1665L143.185 7.38412L136.598 84.9902L124.284 96.445L107.389 77.5446Z" fill="black"/>
<path d="M298.588 1.65674L266.228 31.7255H210.1L182.895 1.65674H298.588ZM281.12 202.115H165.426L197.786 172.333H253.915L281.12 202.115ZM293.72 118.782L287.133 196.388L259.928 166.605L263.365 126.227L283.697 107.613L293.72 118.782ZM267.66 77.5446L271.097 37.1665L303.456 7.38412L296.87 84.9902L284.556 96.445L267.66 77.5446ZM265.083 86.9948L278.829 101.886L262.506 116.777H198.932L185.472 101.886L201.509 86.9948H265.083Z" fill="black"/>
<path d="M458.86 1.65674L426.5 31.7255H370.372L343.167 1.65674H458.86ZM441.391 202.115H325.698L358.058 172.333H414.186L441.391 202.115ZM356.34 126.227L352.903 166.605L320.544 196.388L327.13 118.782L339.444 107.613L356.34 126.227ZM427.932 77.5446L431.368 37.1665L463.728 7.38412L457.142 84.9902L444.828 96.445L427.932 77.5446ZM425.355 86.9948L439.1 101.886L422.777 116.777H359.203L345.744 101.886L361.781 86.9948H425.355Z" fill="black"/>
<path d="M619.132 1.65674L586.772 31.7255H530.644L503.439 1.65674H619.132ZM601.663 202.115H485.97L518.33 172.333H574.458L601.663 202.115ZM516.611 126.227L513.175 166.605L480.815 196.388L487.402 118.782L499.716 107.613L516.611 126.227ZM490.552 84.9902L497.138 7.38412L524.343 37.1665L520.907 77.5446L500.575 96.445L490.552 84.9902ZM614.263 118.782L607.677 196.388L580.472 166.605L583.908 126.227L604.241 107.613L614.263 118.782ZM588.204 77.5446L591.64 37.1665L624 7.38412L617.414 84.9902L605.1 96.445L588.204 77.5446Z" fill="black"/>
</svg>
