<!-- <svg width="624" height="202" viewBox="0 0 624 202" fill="none" xmlns="http://www.w3.org/2000/svg">
<path d="M138.316 0L105.957 30.0688H49.8283L22.6232 0H138.316ZM120.848 200.459H5.15465L37.5144 170.676H93.6428L120.848 200.459ZM35.7962 124.571L32.3597 164.949L0 194.731L6.5865 117.125L18.9004 105.957L35.7962 124.571ZM9.73656 83.3335L16.3231 5.72738L43.5281 35.5098L40.0917 75.8879L19.7595 94.7883L9.73656 83.3335ZM133.448 117.125L126.862 194.731L99.6565 164.949L103.093 124.571L123.425 105.957L133.448 117.125ZM107.389 75.8879L110.825 35.5098L143.185 5.72738L136.598 83.3335L124.284 94.7883L107.389 75.8879ZM104.811 85.3381L118.557 100.229L102.234 115.12H38.6599L25.2005 100.229L41.2372 85.3381H104.811Z" fill="#2B2929"/>
<path d="M298.588 0L266.228 30.0688H210.1L182.895 0H298.588ZM281.12 200.459H165.426L197.786 170.676H253.915L281.12 200.459ZM196.068 124.571L192.632 164.949L160.272 194.731L166.858 117.125L179.172 105.957L196.068 124.571ZM170.008 83.3335L176.595 5.72738L203.8 35.5098L200.363 75.8879L180.031 94.7883L170.008 83.3335ZM293.72 117.125L287.133 194.731L259.928 164.949L263.365 124.571L283.697 105.957L293.72 117.125ZM267.66 75.8879L271.097 35.5098L303.456 5.72738L296.87 83.3335L284.556 94.7883L267.66 75.8879ZM265.083 85.3381L278.829 100.229L262.506 115.12H198.932L185.472 100.229L201.509 85.3381H265.083Z" fill="#2B2929"/>
<path d="M458.86 0L426.5 30.0688H370.372L343.167 0H458.86ZM441.391 200.459H325.698L358.058 170.676H414.186L441.391 200.459ZM356.34 124.571L352.903 164.949L320.544 194.731L327.13 117.125L339.444 105.957L356.34 124.571ZM330.28 83.3335L336.867 5.72738L364.072 35.5098L360.635 75.8879L340.303 94.7883L330.28 83.3335ZM453.992 117.125L447.405 194.731L420.2 164.949L423.637 124.571L443.969 105.957L453.992 117.125ZM427.932 75.8879L431.368 35.5098L463.728 5.72738L457.142 83.3335L444.828 94.7883L427.932 75.8879ZM425.355 85.3381L439.1 100.229L422.777 115.12H359.203L345.744 100.229L361.781 85.3381H425.355Z" fill="#2B2929"/>
<path d="M619.132 0L586.772 30.0688H530.644L503.439 0H619.132ZM601.663 200.459H485.97L518.33 170.676H574.458L601.663 200.459ZM516.611 124.571L513.175 164.949L480.815 194.731L487.402 117.125L499.716 105.957L516.611 124.571ZM490.552 83.3335L497.138 5.72738L524.343 35.5098L520.907 75.8879L500.575 94.7883L490.552 83.3335ZM614.263 117.125L607.677 194.731L580.472 164.949L583.908 124.571L604.241 105.957L614.263 117.125ZM588.204 75.8879L591.64 35.5098L624 5.72738L617.414 83.3335L605.1 94.7883L588.204 75.8879ZM585.627 85.3381L599.372 100.229L583.049 115.12H519.475L506.016 100.229L522.052 85.3381H585.627Z" fill="#2B2929"/>
<path d="M138.316 1.11865L105.957 31.1874H49.8283L22.6232 1.11865H138.316ZM120.848 201.577H5.15465L37.5144 171.795H93.6428L120.848 201.577ZM35.7962 125.689L32.3597 166.067L0 195.85L6.5865 118.244L18.9004 107.075L35.7962 125.689ZM9.73656 84.4521L16.3231 6.84603L43.5281 36.6285L40.0917 77.0065L19.7595 95.9069L9.73656 84.4521ZM133.448 118.244L126.862 195.85L99.6565 166.067L103.093 125.689L123.425 107.075L133.448 118.244ZM107.389 77.0065L110.825 36.6285L143.185 6.84603L136.598 84.4521L124.284 95.9069L107.389 77.0065Z" fill="white"/>
<path d="M298.588 1.11865L266.228 31.1874H210.1L182.895 1.11865H298.588ZM281.12 201.577H165.426L197.786 171.795H253.915L281.12 201.577ZM293.72 118.244L287.133 195.85L259.928 166.067L263.365 125.689L283.697 107.075L293.72 118.244ZM267.66 77.0065L271.097 36.6285L303.456 6.84603L296.87 84.4521L284.556 95.9069L267.66 77.0065ZM265.083 86.4567L278.829 101.348L262.506 116.239H198.932L185.472 101.348L201.509 86.4567H265.083Z" fill="white"/>
<path d="M458.86 1.11865L426.5 31.1874H370.372L343.167 1.11865H458.86ZM441.391 201.577H325.698L358.058 171.795H414.186L441.391 201.577ZM356.34 125.689L352.903 166.067L320.544 195.85L327.13 118.244L339.444 107.075L356.34 125.689ZM427.932 77.0065L431.368 36.6285L463.728 6.84603L457.142 84.4521L444.828 95.9069L427.932 77.0065ZM425.355 86.4567L439.1 101.348L422.777 116.239H359.203L345.744 101.348L361.781 86.4567H425.355Z" fill="white"/>
<path d="M619.132 1.11865L586.772 31.1874H530.644L503.439 1.11865H619.132ZM601.663 201.577H485.97L518.33 171.795H574.458L601.663 201.577ZM516.611 125.689L513.175 166.067L480.815 195.85L487.402 118.244L499.716 107.075L516.611 125.689ZM490.552 84.4521L497.138 6.84603L524.343 36.6285L520.907 77.0065L500.575 95.9069L490.552 84.4521ZM614.263 118.244L607.677 195.85L580.472 166.067L583.908 125.689L604.241 107.075L614.263 118.244ZM588.204 77.0065L591.64 36.6285L624 6.84603L617.414 84.4521L605.1 95.9069L588.204 77.0065Z" fill="white"/>
</svg> -->


<svg width="179" height="47" viewBox="0 0 179 47" fill="none" xmlns="http://www.w3.org/2000/svg">
<path fill-rule="evenodd" clip-rule="evenodd" d="M15.2416 7.85174V17.5509L23.0933 10.1611V0L15.7034 7.38987L15.2416 7.85174ZM13.8561 9.23728V46.6485L7.38991 40.1824V15.7034L13.8561 9.23728ZM32.3308 9.23728V46.6485L38.7969 40.1824V15.7034L32.3308 9.23728ZM30.9451 17.5509V7.85174L30.4832 7.38987L23.0933 0V10.1611L30.9451 17.5509ZM23.093 31.869V30.0215V23.5554L17.2887 17.4608L15.241 19.286V23.6244L23.093 31.869ZM30.9453 23.6244L23.0933 31.8689V30.0215V23.5553L28.8831 17.4761L30.9453 19.2436V23.6244ZM5.08054 26.7883L6.00427 25.8645V16.6272L0 22.1696V31.8688L5.08054 26.7883ZM41.1061 26.7883L40.1823 25.8645V16.6272L46.1866 22.1696V31.8688L41.1061 26.7883Z" fill="white"/>
<path d="M57.8859 36.658H56.6808C56.3957 36.658 56.305 36.5025 56.4087 36.1915L64.1445 12.1286C64.2223 11.8176 64.4037 11.6621 64.6888 11.6621H66.5158C66.775 11.6621 66.9564 11.8176 67.0601 12.1286L74.796 36.1915C74.8737 36.5025 74.783 36.658 74.5238 36.658H73.2799C73.0207 36.658 72.8523 36.5025 72.7745 36.1915L70.6753 29.9717H60.4904L58.3912 36.1915C58.2876 36.5025 58.1191 36.658 57.8859 36.658ZM65.5051 13.8002L61.0346 28.2224H70.17L65.6606 13.8002H65.5051Z" fill="white"/>
<path d="M97.2341 11.6621H99.3332C99.5924 11.6621 99.722 11.8176 99.722 12.1286V36.1915C99.722 36.5025 99.5924 36.658 99.3332 36.658H98.2059C97.9208 36.658 97.7783 36.5025 97.7783 36.1915V14.6554H97.6228L90.7421 30.788C90.5866 31.0731 90.3923 31.2156 90.159 31.2156H88.8762C88.617 31.2156 88.4356 31.0731 88.3319 30.788L81.3347 14.6165H81.1792V36.1915C81.1792 36.5025 81.0496 36.658 80.7904 36.658H79.6631C79.4039 36.658 79.2743 36.5025 79.2743 36.1915V12.1286C79.2743 11.8176 79.4039 11.6621 79.6631 11.6621H81.7623C81.9437 11.6621 82.0603 11.7399 82.1121 11.8954L89.4204 28.961H89.5759L96.8842 11.8954C96.936 11.7399 97.0526 11.6621 97.2341 11.6621Z" fill="white"/>
<path d="M111.784 36.658H110.657C110.372 36.658 110.229 36.5025 110.229 36.1915V13.7613C110.229 13.5281 110.1 13.4114 109.84 13.4114H104.204C103.893 13.4114 103.737 13.2689 103.737 12.9838V12.0897C103.737 11.8046 103.893 11.6621 104.204 11.6621H118.198C118.509 11.6621 118.665 11.8046 118.665 12.0897V12.9838C118.665 13.2689 118.509 13.4114 118.198 13.4114H112.562C112.302 13.4114 112.173 13.5281 112.173 13.7613V36.1915C112.173 36.5025 112.043 36.658 111.784 36.658Z" fill="white"/>
<path d="M135.066 36.658H123.054C122.795 36.658 122.666 36.5025 122.666 36.1915V12.1286C122.666 11.8176 122.795 11.6621 123.054 11.6621H135.066C135.377 11.6621 135.533 11.8046 135.533 12.0897V12.9838C135.533 13.2689 135.377 13.4114 135.066 13.4114H124.998C124.739 13.4114 124.609 13.5281 124.609 13.7613V22.7023C124.609 22.9355 124.739 23.0521 124.998 23.0521H133.978C134.263 23.0521 134.406 23.1947 134.406 23.4797V24.3738C134.406 24.6589 134.263 24.8015 133.978 24.8015H124.998C124.739 24.8015 124.609 24.9181 124.609 25.1513V34.5588C124.609 34.792 124.739 34.9086 124.998 34.9086H135.066C135.377 34.9086 135.533 35.0512 135.533 35.3363V36.2304C135.533 36.5154 135.377 36.658 135.066 36.658Z" fill="white"/>
<path d="M151.333 36.658H146.435C144.75 36.658 143.416 36.1656 142.431 35.1808C141.472 34.196 140.993 32.8483 140.993 31.1379V17.1822C140.993 15.4717 141.472 14.1241 142.431 13.1393C143.416 12.1545 144.75 11.6621 146.435 11.6621H151.333C153.018 11.6621 154.339 12.1545 155.298 13.1393C156.283 14.1241 156.775 15.4717 156.775 17.1822V19.087C156.775 19.398 156.633 19.5535 156.348 19.5535H155.259C154.974 19.5535 154.832 19.398 154.832 19.087V17.2599C154.832 16.016 154.508 15.07 153.86 14.4221C153.238 13.7483 152.331 13.4114 151.139 13.4114H146.59C145.398 13.4114 144.491 13.7483 143.869 14.4221C143.247 15.096 142.936 16.0419 142.936 17.2599V31.0601C142.936 32.2782 143.247 33.2241 143.869 33.8979C144.491 34.5717 145.398 34.9086 146.59 34.9086H151.139C152.331 34.9086 153.238 34.5847 153.86 33.9368C154.508 33.263 154.832 32.3041 154.832 31.0601V29.2331C154.832 28.9221 154.974 28.7666 155.259 28.7666H156.348C156.633 28.7666 156.775 28.9221 156.775 29.2331V31.1379C156.775 32.8483 156.283 34.196 155.298 35.1808C154.339 36.1656 153.018 36.658 151.333 36.658Z" fill="white"/>
<path d="M163.967 36.658H162.839C162.58 36.658 162.451 36.5025 162.451 36.1915V12.1286C162.451 11.8176 162.58 11.6621 162.839 11.6621H163.967C164.252 11.6621 164.394 11.8176 164.394 12.1286V22.7411C164.394 22.9744 164.524 23.091 164.783 23.091H175.668C175.927 23.091 176.056 22.9744 176.056 22.7411V12.1286C176.056 11.8176 176.186 11.6621 176.445 11.6621H177.573C177.858 11.6621 178 11.8176 178 12.1286V36.1915C178 36.5025 177.858 36.658 177.573 36.658H176.445C176.186 36.658 176.056 36.5025 176.056 36.1915V25.1902C176.056 24.957 175.927 24.8403 175.668 24.8403H164.783C164.524 24.8403 164.394 24.957 164.394 25.1902V36.1915C164.394 36.5025 164.252 36.658 163.967 36.658Z" fill="white"/>
<path d="M57.8859 36.658H56.6808C56.3957 36.658 56.305 36.5025 56.4087 36.1915L64.1445 12.1286C64.2223 11.8176 64.4037 11.6621 64.6888 11.6621H66.5158C66.775 11.6621 66.9564 11.8176 67.0601 12.1286L74.796 36.1915C74.8737 36.5025 74.783 36.658 74.5238 36.658H73.2799C73.0207 36.658 72.8523 36.5025 72.7745 36.1915L70.6753 29.9717H60.4904L58.3912 36.1915C58.2876 36.5025 58.1191 36.658 57.8859 36.658ZM65.5051 13.8002L61.0346 28.2224H70.17L65.6606 13.8002H65.5051Z" stroke="white" stroke-width="2"/>
<path d="M97.2341 11.6621H99.3332C99.5924 11.6621 99.722 11.8176 99.722 12.1286V36.1915C99.722 36.5025 99.5924 36.658 99.3332 36.658H98.2059C97.9208 36.658 97.7783 36.5025 97.7783 36.1915V14.6554H97.6228L90.7421 30.788C90.5866 31.0731 90.3923 31.2156 90.159 31.2156H88.8762C88.617 31.2156 88.4356 31.0731 88.3319 30.788L81.3347 14.6165H81.1792V36.1915C81.1792 36.5025 81.0496 36.658 80.7904 36.658H79.6631C79.4039 36.658 79.2743 36.5025 79.2743 36.1915V12.1286C79.2743 11.8176 79.4039 11.6621 79.6631 11.6621H81.7623C81.9437 11.6621 82.0603 11.7399 82.1121 11.8954L89.4204 28.961H89.5759L96.8842 11.8954C96.936 11.7399 97.0526 11.6621 97.2341 11.6621Z" stroke="white" stroke-width="2"/>
<path d="M111.784 36.658H110.657C110.372 36.658 110.229 36.5025 110.229 36.1915V13.7613C110.229 13.5281 110.1 13.4114 109.84 13.4114H104.204C103.893 13.4114 103.737 13.2689 103.737 12.9838V12.0897C103.737 11.8046 103.893 11.6621 104.204 11.6621H118.198C118.509 11.6621 118.665 11.8046 118.665 12.0897V12.9838C118.665 13.2689 118.509 13.4114 118.198 13.4114H112.562C112.302 13.4114 112.173 13.5281 112.173 13.7613V36.1915C112.173 36.5025 112.043 36.658 111.784 36.658Z" stroke="white" stroke-width="2"/>
<path d="M135.066 36.658H123.054C122.795 36.658 122.666 36.5025 122.666 36.1915V12.1286C122.666 11.8176 122.795 11.6621 123.054 11.6621H135.066C135.377 11.6621 135.533 11.8046 135.533 12.0897V12.9838C135.533 13.2689 135.377 13.4114 135.066 13.4114H124.998C124.739 13.4114 124.609 13.5281 124.609 13.7613V22.7023C124.609 22.9355 124.739 23.0521 124.998 23.0521H133.978C134.263 23.0521 134.406 23.1947 134.406 23.4797V24.3738C134.406 24.6589 134.263 24.8015 133.978 24.8015H124.998C124.739 24.8015 124.609 24.9181 124.609 25.1513V34.5588C124.609 34.792 124.739 34.9086 124.998 34.9086H135.066C135.377 34.9086 135.533 35.0512 135.533 35.3363V36.2304C135.533 36.5154 135.377 36.658 135.066 36.658Z" stroke="white" stroke-width="2"/>
<path d="M151.333 36.658H146.435C144.75 36.658 143.416 36.1656 142.431 35.1808C141.472 34.196 140.993 32.8483 140.993 31.1379V17.1822C140.993 15.4717 141.472 14.1241 142.431 13.1393C143.416 12.1545 144.75 11.6621 146.435 11.6621H151.333C153.018 11.6621 154.339 12.1545 155.298 13.1393C156.283 14.1241 156.775 15.4717 156.775 17.1822V19.087C156.775 19.398 156.633 19.5535 156.348 19.5535H155.259C154.974 19.5535 154.832 19.398 154.832 19.087V17.2599C154.832 16.016 154.508 15.07 153.86 14.4221C153.238 13.7483 152.331 13.4114 151.139 13.4114H146.59C145.398 13.4114 144.491 13.7483 143.869 14.4221C143.247 15.096 142.936 16.0419 142.936 17.2599V31.0601C142.936 32.2782 143.247 33.2241 143.869 33.8979C144.491 34.5717 145.398 34.9086 146.59 34.9086H151.139C152.331 34.9086 153.238 34.5847 153.86 33.9368C154.508 33.263 154.832 32.3041 154.832 31.0601V29.2331C154.832 28.9221 154.974 28.7666 155.259 28.7666H156.348C156.633 28.7666 156.775 28.9221 156.775 29.2331V31.1379C156.775 32.8483 156.283 34.196 155.298 35.1808C154.339 36.1656 153.018 36.658 151.333 36.658Z" stroke="white" stroke-width="2"/>
<path d="M163.967 36.658H162.839C162.58 36.658 162.451 36.5025 162.451 36.1915V12.1286C162.451 11.8176 162.58 11.6621 162.839 11.6621H163.967C164.252 11.6621 164.394 11.8176 164.394 12.1286V22.7411C164.394 22.9744 164.524 23.091 164.783 23.091H175.668C175.927 23.091 176.056 22.9744 176.056 22.7411V12.1286C176.056 11.8176 176.186 11.6621 176.445 11.6621H177.573C177.858 11.6621 178 11.8176 178 12.1286V36.1915C178 36.5025 177.858 36.658 177.573 36.658H176.445C176.186 36.658 176.056 36.5025 176.056 36.1915V25.1902C176.056 24.957 175.927 24.8403 175.668 24.8403H164.783C164.524 24.8403 164.394 24.957 164.394 25.1902V36.1915C164.394 36.5025 164.252 36.658 163.967 36.658Z" stroke="white" stroke-width="2"/>
</svg>